<?xml version="1.0" encoding="utf-8"?>
<!-- Generator: Adobe Illustrator 27.5.0, SVG Export Plug-In . SVG Version: 6.00 Build 0)  -->
<svg version="1.1" xmlns="http://www.w3.org/2000/svg" xmlns:xlink="http://www.w3.org/1999/xlink" x="0px" y="0px"
	 viewBox="0 0 2200 2200" style="enable-background:new 0 0 2200 2200;" xml:space="preserve">

<g id="Objects">
	<g>
		<g>
			<path style="fill:#114693;" d="M1958.769,963.468v47.427c0,9.381-5.812,17.782-14.584,21.1l-45.53,17.233
				c-6.492,25.898-16.863,50.268-30.48,72.418l19.728,43.764c3.867,8.545,2.029,18.594-4.607,25.229l-33.536,33.536
				c-6.635,6.635-16.684,8.473-25.241,4.619l-44.396-20.026c-22.293,13.367-46.759,23.475-72.74,29.693l-16.983,44.873
				c-3.318,8.772-11.731,14.584-21.112,14.584h-47.416c-9.392,0-17.794-5.812-21.112-14.584l-17.233-45.542
				c-25.898-6.48-50.256-16.851-72.418-30.469l-43.752,19.728c-8.557,3.867-18.606,2.029-25.241-4.607l-33.536-33.536
				c-6.636-6.635-8.474-16.684-4.607-25.241l20.014-44.396c-13.367-22.293-23.475-46.759-29.693-72.752l-44.862-16.971
				c-8.784-3.318-14.584-11.731-14.584-21.112v-47.427c0-9.38,5.8-17.782,14.584-21.1l45.53-17.233
				c6.48-25.898,16.863-50.256,30.469-72.418l-19.728-43.752c-3.855-8.557-2.017-18.606,4.619-25.241l33.524-33.536
				c6.635-6.636,16.684-8.474,25.241-4.619l44.396,20.026c22.305-13.367,46.771-23.475,72.752-29.693l16.971-44.873
				c3.33-8.772,11.732-14.572,21.112-14.572h47.427c9.38,0,17.782,5.8,21.112,14.572l17.221,45.542
				c25.91,6.48,50.268,16.863,72.418,30.469l43.764-19.728c8.545-3.855,18.594-2.017,25.229,4.619l33.536,33.524
				c6.635,6.636,8.473,16.684,4.619,25.241l-20.026,44.396c13.366,22.294,23.475,46.759,29.693,72.752l44.873,16.971
				C1952.957,945.686,1958.769,954.087,1958.769,963.468z"/>
			<circle style="fill:#0D386B;" cx="1646.802" cy="985.949" r="169.198"/>
			<circle style="fill:#1346A0;" cx="1646.802" cy="985.949" r="81.166"/>
		</g>
		<g>
			<path style="fill:#205BD1;" d="M1362.167,1091.99v333.164c0,103.268-250.929,186.976-560.468,186.976
				s-560.468-83.708-560.468-186.976V1091.99H1362.167z"/>
			<path style="fill:#1C4BB5;" d="M1362.167,758.827v333.164c0,103.268-250.929,186.976-560.468,186.976
				s-560.468-83.708-560.468-186.976V758.827H1362.167z"/>
			<path style="fill:#205BD1;" d="M1362.167,425.663v333.164c0,103.268-250.929,186.976-560.468,186.976
				s-560.468-83.708-560.468-186.976V425.663H1362.167z"/>
			<path style="fill:#1286F9;" d="M1362.167,425.663c0,103.258-250.929,186.966-560.468,186.966S241.231,528.92,241.231,425.663
				c0-103.268,250.929-186.976,560.468-186.976S1362.167,322.394,1362.167,425.663z"/>
			<circle style="fill:#FFFFFF;" cx="371.662" cy="700.942" r="53.988"/>
			<circle style="fill:#FFFFFF;" cx="371.662" cy="1039.947" r="53.988"/>
			<circle style="fill:#FFFFFF;" cx="373.765" cy="1376.848" r="53.988"/>
		</g>
		<g>
			<path style="fill:#114693;" d="M1654.454,1586.403v53.165c0,10.515-6.515,19.934-16.348,23.653l-51.038,19.318
				c-7.278,29.031-18.903,56.349-34.168,81.179l22.114,49.058c4.334,9.579,2.274,20.843-5.164,28.281l-37.593,37.593
				c-7.438,7.438-18.703,9.499-28.295,5.177l-49.767-22.448c-24.99,14.984-52.416,26.315-81.54,33.285l-19.037,50.302
				c-3.719,9.833-13.151,16.348-23.666,16.348h-53.151c-10.529,0-19.947-6.515-23.666-16.348l-19.318-51.051
				c-29.031-7.264-56.335-18.89-81.179-34.154l-49.044,22.114c-9.592,4.335-20.857,2.274-28.295-5.164l-37.593-37.593
				c-7.438-7.438-9.499-18.703-5.164-28.295l22.435-49.767c-14.984-24.99-26.315-52.416-33.285-81.553l-50.289-19.024
				c-9.846-3.719-16.348-13.151-16.348-23.666v-53.165c0-10.515,6.502-19.933,16.348-23.653l51.038-19.318
				c7.264-29.031,18.903-56.336,34.155-81.179l-22.114-49.044c-4.321-9.592-2.261-20.857,5.177-28.295l37.579-37.593
				c7.438-7.438,18.703-9.499,28.295-5.177l49.767,22.449c25.004-14.984,52.429-26.315,81.553-33.285l19.024-50.302
				c3.733-9.833,13.151-16.335,23.666-16.335h53.165c10.515,0,19.933,6.502,23.666,16.335l19.305,51.051
				c29.044,7.264,56.349,18.903,81.179,34.155l49.058-22.114c9.579-4.321,20.843-2.261,28.281,5.177l37.593,37.579
				c7.438,7.438,9.499,18.703,5.177,28.295l-22.449,49.767c14.984,24.99,26.315,52.416,33.285,81.553l50.302,19.024
				C1647.939,1566.47,1654.454,1575.888,1654.454,1586.403z"/>
			<circle style="fill:#0D386B;" cx="1304.747" cy="1611.604" r="189.666"/>
			<circle style="fill:#1346A0;" cx="1304.747" cy="1611.604" r="90.985"/>
		</g>
	</g>
</g>
</svg>
